<svg xmlns="http://www.w3.org/2000/svg" viewBox="0 0 472.00 103.70" width="472" height="104" role="img" aria-labelledby="t"><title id="t">SGA creatives</title><g fill="#F3F0E9"><path d="M20.3 82.4Q13.2 82.4 8.9 77.95Q4.6 73.5 4 66.2L12.9 63.5Q13.7 69 15.6 71.75Q17.5 74.5 21.2 74.5Q24.1 74.5 25.6 72.85Q27.1 71.2 27.1 68.4Q27.1 65.9 26 63.9Q24.9 61.9 22.4 59.8L12.5 51.3Q9.5 48.7 7.45 45.5Q5.4 42.3 5.4 37.2Q5.4 32.6 7.25 29.45Q9.1 26.3 12.45 24.65Q15.8 23 20.3 23Q27.5 23 31.3 27.45Q35.1 31.9 35.7 38.2L28.1 40.9Q27.7 37.9 26.9 35.65Q26.1 33.4 24.6 32.15Q23.1 30.9 20.7 30.9Q18.1 30.9 16.55 32.65Q15 34.4 15 36.8Q15 38.3 15.65 39.75Q16.3 41.2 17.9 42.6L28.1 52Q30.2 53.9 32.05 56.1Q33.9 58.3 35.1 61.1Q36.3 63.9 36.3 67.6Q36.3 72.5 34.3 75.8Q32.3 79.1 28.7 80.75Q25.1 82.4 20.3 82.4ZM59.6 99.7Q54.3 99.7 50.05 98.55Q45.8 97.4 43.35 95Q40.9 92.6 40.9 88.7Q40.9 85.7 42.3 83.45Q43.7 81.2 45.9 79.6Q48.1 78 50.5 77.1L55.5 77.8Q54.2 79 53 80.25Q51.8 81.5 51 82.85Q50.2 84.2 50.2 85.8Q50.2 88.4 52.45 89.7Q54.7 91 60.5 91Q66.2 91 68.95 89.65Q71.7 88.3 71.7 85.4Q71.7 83.6 71 82.45Q70.3 81.3 68.6 80.6Q66.9 79.9 63.7 79.6L51.1 78Q47.2 77.5 45.3 75.5Q43.4 73.5 43.4 71.1Q43.4 67.5 45.45 65Q47.5 62.5 51 59.4L54.6 62.2Q54 63 53.1 64.45Q52.2 65.9 52.2 67.3Q52.2 68.4 53.35 69.1Q54.5 69.8 57 70L66.7 70.9Q73.5 71.5 76.8 75Q80.1 78.5 80.1 85Q80.1 89.8 77.85 93.1Q75.6 96.4 71.1 98.05Q66.6 99.7 59.6 99.7ZM60 63.8Q54.1 63.8 50.4 61.2Q46.7 58.6 44.95 54Q43.2 49.4 43.2 43.5Q43.2 36.8 45.1 32.25Q47 27.7 50.75 25.35Q54.5 23 60 23Q65.7 23 69.3 25.85Q72.9 28.7 74.6 33.4Q76.3 38.1 76.3 43.8Q76.3 49.7 74.75 54.25Q73.2 58.8 69.65 61.3Q66.1 63.8 60 63.8ZM60 56.1Q62.2 56.1 63.5 55.25Q64.8 54.4 65.45 52.8Q66.1 51.2 66.35 48.85Q66.6 46.5 66.6 43.5Q66.6 40.5 66.4 38.1Q66.2 35.7 65.5 34.05Q64.8 32.4 63.5 31.5Q62.2 30.6 60.1 30.6Q57.9 30.6 56.55 31.45Q55.2 32.3 54.45 33.95Q53.7 35.6 53.45 38Q53.2 40.4 53.2 43.5Q53.2 46.2 53.45 48.5Q53.7 50.8 54.4 52.5Q55.1 54.2 56.45 55.15Q57.8 56.1 60 56.1ZM74.3 33.5 71.8 29.5Q72.6 28.1 75.4 26Q78.2 23.9 81.4 22.5L84.2 29.5Q82.8 29.8 80.45 30.6Q78.1 31.4 76.2 32.25Q74.3 33.1 74.3 33.5ZM97.1 82.4Q93.7 82.4 91.1 80.45Q88.5 78.5 87 75.45Q85.5 72.4 85.5 69Q85.5 63.6 87.3 59.9Q89.1 56.2 92.25 53.65Q95.4 51.1 99.55 49.2Q103.7 47.3 108.3 45.5V41.4Q108.3 37.9 107.9 35.6Q107.5 33.3 106.25 32.15Q105 31 102.5 31Q100.3 31 98.95 32Q97.6 33 97 34.85Q96.4 36.7 96.4 39.2V42.1L85.8 41.7Q86 32.1 90.2 27.55Q94.4 23 103.2 23Q111.8 23 115.4 27.7Q119 32.4 119 41.3V67.7Q119 70.4 119.15 72.9Q119.3 75.4 119.55 77.55Q119.8 79.7 120 81.6H110.2Q109.9 80 109.45 77.55Q109 75.1 108.8 73.1Q107.8 76.5 104.95 79.45Q102.1 82.4 97.1 82.4ZM101.3 73.2Q102.9 73.2 104.3 72.3Q105.7 71.4 106.8 70.25Q107.9 69.1 108.3 68.4V52Q105.8 53.4 103.6 54.8Q101.4 56.2 99.75 57.75Q98.1 59.3 97.15 61.25Q96.2 63.2 96.2 65.7Q96.2 69.2 97.5 71.2Q98.8 73.2 101.3 73.2ZM128.8 81.6V69.7H139.5V81.6ZM163.9 82.4Q156.8 82.4 153.15 79.55Q149.5 76.7 148.25 71.5Q147 66.3 147 59.4V46.1Q147 38.8 148.3 33.65Q149.6 28.5 153.25 25.75Q156.9 23 163.9 23Q170.2 23 173.65 25.05Q177.1 27.1 178.4 31.15Q179.7 35.2 179.7 41.2V44.6H170V41.1Q170 37.3 169.5 35.1Q169 32.9 167.7 31.9Q166.4 30.9 164 30.9Q161.4 30.9 160 32.1Q158.6 33.3 158.15 36.15Q157.7 39 157.7 43.9V62.1Q157.7 69.5 159.1 72Q160.5 74.5 164.1 74.5Q166.8 74.5 168.05 73.25Q169.3 72 169.65 69.7Q170 67.4 170 64.5V59.8H179.7V63.8Q179.7 69.6 178.35 73.8Q177 78 173.55 80.2Q170.1 82.4 163.9 82.4ZM189.5 81.6V23.8H200.2V32Q203.4 26.7 206.6 24.9Q209.8 23.1 213 23.1Q213.4 23.1 213.75 23.1Q214.1 23.1 214.7 23.2V35Q213.5 34.5 211.95 34.15Q210.4 33.8 208.8 33.8Q206.3 33.8 204.25 34.95Q202.2 36.1 200.2 39.4V81.6ZM237.3 82.4Q230.5 82.4 226.8 79.75Q223.1 77.1 221.65 71.95Q220.2 66.8 220.2 59.3V46.1Q220.2 38.4 221.7 33.3Q223.2 28.2 226.95 25.6Q230.7 23 237.3 23Q244.6 23 248.05 26Q251.5 29 252.6 34.65Q253.7 40.3 253.7 48.2V52.9H230.9V64.5Q230.9 68 231.55 70.2Q232.2 72.4 233.65 73.45Q235.1 74.5 237.4 74.5Q239.8 74.5 241.05 73.35Q242.3 72.2 242.75 70.05Q243.2 67.9 243.2 65V61.5H253.6V63.7Q253.6 72.4 249.9 77.4Q246.2 82.4 237.3 82.4ZM230.9 47.1H243.2V41.9Q243.2 38.3 242.8 35.85Q242.4 33.4 241.15 32.15Q239.9 30.9 237.2 30.9Q234.6 30.9 233.25 32.1Q231.9 33.3 231.4 36.15Q230.9 39 230.9 44ZM272.1 82.4Q268.7 82.4 266.1 80.45Q263.5 78.5 262 75.45Q260.5 72.4 260.5 69Q260.5 63.6 262.3 59.9Q264.1 56.2 267.25 53.65Q270.4 51.1 274.55 49.2Q278.7 47.3 283.3 45.5V41.4Q283.3 37.9 282.9 35.6Q282.5 33.3 281.25 32.15Q280 31 277.5 31Q275.3 31 273.95 32Q272.6 33 272 34.85Q271.4 36.7 271.4 39.2V42.1L260.8 41.7Q261 32.1 265.2 27.55Q269.4 23 278.2 23Q286.8 23 290.4 27.7Q294 32.4 294 41.3V67.7Q294 70.4 294.15 72.9Q294.3 75.4 294.55 77.55Q294.8 79.7 295 81.6H285.2Q284.9 80 284.45 77.55Q284 75.1 283.8 73.1Q282.8 76.5 279.95 79.45Q277.1 82.4 272.1 82.4ZM276.3 73.2Q277.9 73.2 279.3 72.3Q280.7 71.4 281.8 70.25Q282.9 69.1 283.3 68.4V52Q280.8 53.4 278.6 54.8Q276.4 56.2 274.75 57.75Q273.1 59.3 272.15 61.25Q271.2 63.2 271.2 65.7Q271.2 69.2 272.5 71.2Q273.8 73.2 276.3 73.2ZM319.7 82.4Q315.2 82.4 312.45 80.7Q309.7 79 308.45 75.9Q307.2 72.8 307.2 68.6V30.9H301.1V23.8H307.2V6.9H317.9V23.8H327.2V30.9H317.9V67.9Q317.9 71.3 319 72.75Q320.1 74.2 323.2 74.2Q324 74.2 325.05 74.1Q326.1 74 327.1 73.9V81.8Q325.1 82.1 323.4 82.25Q321.7 82.4 319.7 82.4ZM335.8 81.6V23.8H346.5V81.6ZM335.8 15.2V4H346.5V15.2ZM365.5 81.6 354.1 23.8H364.9L372 70.3L379.2 23.8H389.6L378.6 81.6ZM412.5 82.4Q405.7 82.4 402 79.75Q398.3 77.1 396.85 71.95Q395.4 66.8 395.4 59.3V46.1Q395.4 38.4 396.9 33.3Q398.4 28.2 402.15 25.6Q405.9 23 412.5 23Q419.8 23 423.25 26Q426.7 29 427.8 34.65Q428.9 40.3 428.9 48.2V52.9H406.1V64.5Q406.1 68 406.75 70.2Q407.4 72.4 408.85 73.45Q410.3 74.5 412.6 74.5Q415 74.5 416.25 73.35Q417.5 72.2 417.95 70.05Q418.4 67.9 418.4 65V61.5H428.8V63.7Q428.8 72.4 425.1 77.4Q421.4 82.4 412.5 82.4ZM406.1 47.1H418.4V41.9Q418.4 38.3 418 35.85Q417.6 33.4 416.35 32.15Q415.1 30.9 412.4 30.9Q409.8 30.9 408.45 32.1Q407.1 33.3 406.6 36.15Q406.1 39 406.1 44ZM452 82.4Q444.9 82.4 440.6 77.95Q436.3 73.5 435.7 66.2L444.6 63.5Q445.4 69 447.3 71.75Q449.2 74.5 452.9 74.5Q455.8 74.5 457.3 72.85Q458.8 71.2 458.8 68.4Q458.8 65.9 457.7 63.9Q456.6 61.9 454.1 59.8L444.2 51.3Q441.2 48.7 439.15 45.5Q437.1 42.3 437.1 37.2Q437.1 32.6 438.95 29.45Q440.8 26.3 444.15 24.65Q447.5 23 452 23Q459.2 23 463 27.45Q466.8 31.9 467.4 38.2L459.8 40.9Q459.4 37.9 458.6 35.65Q457.8 33.4 456.3 32.15Q454.8 30.9 452.4 30.9Q449.8 30.9 448.25 32.65Q446.7 34.4 446.7 36.8Q446.7 38.3 447.35 39.75Q448 41.2 449.6 42.6L459.8 52Q461.9 53.9 463.75 56.1Q465.6 58.3 466.8 61.1Q468 63.9 468 67.6Q468 72.5 466 75.8Q464 79.1 460.4 80.75Q456.8 82.4 452 82.4Z"/></g></svg>